<svg xmlns="http://www.w3.org/2000/svg" xmlns:svg="http://www.w3.org/2000/svg" id="svg2" width="26" height="26" version="1.1" viewBox="0 0 26 26"><metadata id="metadata20"/><style id="style4">.style0{fill:none;fill-rule:evenodd}.style1{fill:#4e3d1e}</style><title id="title6">logo</title><desc id="desc8">Created with Sketch.</desc><g id="Page-1" class="style0" style="fill:none;fill-rule:evenodd"><g id="Blog-Post" class="style1" transform="translate(-50,-24)" style="fill:#4e3d1e"><g id="Header-Copy" transform="translate(50,11)"><g id="logo"><path id="Mask-Copy-38" d="m 23.2,19.5 c -0.1,-0.3 -0.3,-0.5 -0.4,-0.7 -1.9,-2.6 -4.9,-4.7 -9,-4.9 -0.3,0 -0.5,-0.1 -0.8,-0.1 -0.3,0 -0.5,0.1 -0.8,0.1 -3.5,0.2 -6.3,1.8 -8.2,3.9 -1.1,1.3 -2,2.8 -2.5,4.4 -0.4,1 -0.6,2.1 -0.6,3 0.6,2.7 4.5,9 12.1,9 7.6,0 11.6,-6.3 12.1,-9 0,-1.8 -0.6,-3.9 -1.9,-5.7 l 0,0 z m 1.9,7.8 C 24.4,33.4 19.3,38.2 13,38.2 6.7,38.2 1.6,33.4 0.9,27.3 3,31.9 7.6,35 13,35 c 5.4,0 10,-3.1 12.1,-7.7 l 0,0 z M 13,39 C 20.2,39 26,33.2 26,26 26,18.8 20.2,13 13,13 5.8,13 0,18.8 0,26 0,33.2 5.8,39 13,39 Z M 5.5,22.2 c 0,-0.2 0.1,-0.4 0.3,-0.5 0,0 0.7,-0.4 2.3,-0.4 1.5,0 2.4,0.4 2.4,0.4 0.2,0.1 0.3,0.3 0.2,0.5 -0.1,0.2 -0.3,0.3 -0.5,0.3 0,0 -0.7,-0.3 -2.1,-0.3 C 6.6,22.2 6,22.5 6,22.5 5.8,22.6 5.6,22.4 5.5,22.2 Z m 9.9,0 c -0.1,-0.2 0,-0.4 0.2,-0.5 0,0 0.8,-0.4 2.3,-0.4 1.6,0 2.5,0.4 2.5,0.4 0.2,0.1 0.3,0.3 0.2,0.5 -0.1,0.2 -0.3,0.3 -0.5,0.3 0,0 -0.7,-0.3 -2.2,-0.3 -1.4,0 -2,0.3 -2,0.3 -0.2,0.1 -0.4,-0.1 -0.5,-0.3 z"/></g></g></g></g><g style="fill:#4e3d1e;fill-rule:evenodd" id="g4150" class="style1" transform="translate(-50,-24)"><g id="g4152" transform="translate(50,11)"><g id="g4154"><path id="path4156" d="m 23.2,19.5 c -0.1,-0.3 -0.3,-0.5 -0.4,-0.7 -1.9,-2.6 -4.9,-4.7 -9,-4.9 -0.3,0 -0.5,-0.1 -0.8,-0.1 -0.3,0 -0.5,0.1 -0.8,0.1 -3.5,0.2 -6.3,1.8 -8.2,3.9 -1.1,1.3 -2,2.8 -2.5,4.4 -0.4,1 -0.6,2.1 -0.6,3 0.6,2.7 4.5,9 12.1,9 7.6,0 11.6,-6.3 12.1,-9 0,-1.8 -0.6,-3.9 -1.9,-5.7 l 0,0 z m 1.9,7.8 C 24.4,33.4 19.3,38.2 13,38.2 6.7,38.2 1.6,33.4 0.9,27.3 3,31.9 7.6,35 13,35 c 5.4,0 10,-3.1 12.1,-7.7 l 0,0 z M 13,39 C 20.2,39 26,33.2 26,26 26,18.8 20.2,13 13,13 5.8,13 0,18.8 0,26 0,33.2 5.8,39 13,39 Z M 5.5,22.2 c 0,-0.2 0.1,-0.4 0.3,-0.5 0,0 0.7,-0.4 2.3,-0.4 1.5,0 2.4,0.4 2.4,0.4 0.2,0.1 0.3,0.3 0.2,0.5 -0.1,0.2 -0.3,0.3 -0.5,0.3 0,0 -0.7,-0.3 -2.1,-0.3 C 6.6,22.2 6,22.5 6,22.5 5.8,22.6 5.6,22.4 5.5,22.2 Z m 9.9,0 c -0.1,-0.2 0,-0.4 0.2,-0.5 0,0 0.8,-0.4 2.3,-0.4 1.6,0 2.5,0.4 2.5,0.4 0.2,0.1 0.3,0.3 0.2,0.5 -0.1,0.2 -0.3,0.3 -0.5,0.3 0,0 -0.7,-0.3 -2.2,-0.3 -1.4,0 -2,0.3 -2,0.3 -0.2,0.1 -0.4,-0.1 -0.5,-0.3 z"/></g></g></g></svg>